<?xml version="1.0" encoding="UTF-8"?>
<svg width="318" height="318" viewBox="0 0 318 318" fill="none" xmlns="http://www.w3.org/2000/svg">
  <g clip-path="url(#clip0)">
    <path d="M274.413 35.2295L175.058 107.197L192.532 65.8352L274.413 35.2295Z" fill="#E17726" stroke="#E17726" stroke-linecap="round" stroke-linejoin="round"/>
    <path d="M43.584 35.2295L141.761 107.936L125.468 65.8352L43.584 35.2295Z" fill="#E27625" stroke="#E27625" stroke-linecap="round" stroke-linejoin="round"/>
    <path d="M237.388 225.193L209.939 266.495L264.703 282.434L279.453 226.146L237.388 225.193Z" fill="#E27625" stroke="#E27625" stroke-linecap="round" stroke-linejoin="round"/>
    <path d="M38.6161 226.146L53.1504 282.434L107.914 266.495L80.6481 225.193L38.6161 226.146Z" fill="#E27625" stroke="#E27625" stroke-linecap="round" stroke-linejoin="round"/>
    <path d="M102.404 138.082L93.0862 161.752L145.792 164.034L143.245 104.982L102.404 138.082Z" fill="#E27625" stroke="#E27625" stroke-linecap="round" stroke-linejoin="round"/>
    <path d="M215.565 138.082L174.491 104.65L172.38 164.034L225.045 161.752L215.565 138.082Z" fill="#E27625" stroke="#E27625" stroke-linecap="round" stroke-linejoin="round"/>
    <path d="M107.914 266.495L144.158 248.553L110.67 221.522L107.914 266.495Z" fill="#E27625" stroke="#E27625" stroke-linecap="round" stroke-linejoin="round"/>
    <path d="M173.638 248.553L209.939 266.495L207.251 221.522L173.638 248.553Z" fill="#E27625" stroke="#E27625" stroke-linecap="round" stroke-linejoin="round"/>
    <path d="M209.939 266.495L173.638 248.553L176.391 270.864L176.106 281.74L209.939 266.495Z" fill="#D5BFB2" stroke="#D5BFB2" stroke-linecap="round" stroke-linejoin="round"/>
    <path d="M107.914 266.495L141.82 281.74L141.681 270.864L144.158 248.553L107.914 266.495Z" fill="#D5BFB2" stroke="#D5BFB2" stroke-linecap="round" stroke-linejoin="round"/>
    <!-- Logo còn rất nhiều path, đây là phần tiêu biểu. Xem đầy đủ tại GitHub -->
  </g>
  <defs>
    <clipPath id="clip0">
      <rect width="318" height="318" fill="white"/>
    </clipPath>
  </defs>
</svg>
